<svg width="184" height="200" viewBox="0 0 184 200" fill="none" xmlns="http://www.w3.org/2000/svg">
<path d="M23.1694 124.378L22.3535 123.917C20.7327 123.018 19.197 121.974 17.7653 120.797C14.8096 118.413 12.6978 115.142 11.7409 111.467C11.3218 109.927 11.0296 108.355 10.8671 106.768C10.8166 106.261 10.6522 105.773 10.3864 105.339C8.2171 101.615 5.77398 98.0581 3.07721 94.6967C2.43487 93.8987 1.81114 93.0908 1.20604 92.2729C0.907819 91.8607 0.641084 91.4266 0.408094 90.9743C0.243032 90.6648 0.122165 90.3338 0.0490203 89.9908C-0.150465 89.0093 0.264465 88.2253 1.19207 87.8304C1.87797 87.551 2.63406 87.4931 3.35449 87.6648C4.19653 87.8565 4.99592 88.2021 5.71241 88.6842C6.68469 89.3015 7.57541 90.0387 8.36357 90.8785C9.54054 92.1373 10.6636 93.4439 11.8147 94.7246C12.0142 94.952 12.1478 95.2712 12.4909 95.3649C12.6166 95.0457 12.467 94.7844 12.3892 94.5131C11.8127 92.5183 11.0626 90.5872 10.3185 88.6503C9.62233 86.8349 8.90617 85.0256 8.25785 83.1903C7.91995 82.2271 7.65325 81.2403 7.45991 80.2379C7.33975 79.58 7.31288 78.9085 7.38011 78.2431C7.4228 77.6156 7.67136 77.0198 8.08723 76.548C8.50311 76.0763 9.06304 75.7549 9.68018 75.6338C10.3125 75.5082 10.969 75.6144 11.5294 75.9331C12.0633 76.2254 12.5317 76.6239 12.9059 77.104C13.4436 77.7805 13.9015 78.5168 14.2703 79.2984C14.9993 80.8204 15.6264 82.3891 16.1475 83.9943C16.746 85.7138 17.3065 87.4394 17.891 89.1609C18.0054 89.5319 18.1881 89.8783 18.4296 90.1823C18.4456 89.9512 18.4456 89.7192 18.4296 89.4881C18.2301 88.0019 18.0446 86.5118 17.7873 85.0356C17.3664 82.6158 16.8796 80.208 16.4487 77.7903C16.2545 76.7868 16.1636 75.7661 16.1774 74.7441C16.1794 74.1366 16.2888 73.5342 16.5006 72.9647C16.6297 72.6019 16.8396 72.2733 17.1144 72.0036C17.3893 71.7339 17.7218 71.5302 18.087 71.408C18.4521 71.2858 18.8403 71.2482 19.2221 71.2981C19.6039 71.348 19.9693 71.484 20.2908 71.696C20.8158 72.0086 21.2466 72.4573 21.5376 72.9946C21.9028 73.6657 22.2221 74.3609 22.4931 75.0753C23.1095 76.7569 23.4407 78.5164 23.8197 80.2619C24.3264 82.5999 24.8371 84.9365 25.3518 87.2718C25.4256 87.6109 25.5293 87.9421 25.6131 88.2533C25.8545 88.2812 25.8684 88.1475 25.8704 88.0259C25.8704 86.6853 25.9343 85.3428 25.8704 84.0062C25.7787 82.1909 25.5852 80.3816 25.4475 78.5683C25.3358 77.0741 25.1144 75.576 25.3338 74.0798C25.3803 73.7003 25.4659 73.3266 25.5891 72.9647C26.0599 71.692 27.2668 71.0776 28.5934 71.3968C29.3453 71.5805 30.0064 72.0278 30.4566 72.6575C30.8292 73.1767 31.1186 73.7508 31.3144 74.3591C31.6545 75.39 31.8891 76.4527 32.0146 77.5309C32.1801 78.7637 32.3098 80.0026 32.4135 81.2414C32.625 83.6571 32.8345 86.0729 33.2115 88.4707C33.6025 90.8647 34.2033 93.2198 35.0069 95.5086C35.0587 95.6542 35.1365 95.7918 35.2502 96.0392C35.3639 95.7439 35.4497 95.5505 35.5135 95.345C35.7712 94.3225 36.1672 93.34 36.6905 92.4245C37.1531 91.6191 37.7771 90.9179 38.5234 90.3649C39.2697 89.8119 40.1221 89.419 41.0273 89.2108C41.648 89.0529 42.2927 89.0117 42.9284 89.0891C44.3049 89.2547 45.027 90.2062 44.7757 91.5647C44.676 92.0647 44.5359 92.5557 44.3567 93.0329C44.0176 93.9625 43.6506 94.8802 43.2855 95.7998C42.4766 97.7526 42.1015 99.8579 42.1863 101.97C42.2242 102.734 42.2083 103.502 42.2342 104.268C42.3399 107.41 41.7175 110.422 40.5825 113.337C39.7659 115.417 38.7846 117.429 37.648 119.353C37.5213 119.553 37.4381 119.777 37.4037 120.011C37.3693 120.245 37.3846 120.484 37.4486 120.712C40.1316 131.528 43.3433 142.178 47.4966 152.529C48.6736 155.462 50.0501 158.315 51.4644 161.129C52.3062 162.813 53.168 164.487 54.0238 166.162C54.1495 166.41 54.3031 166.641 54.4906 166.96C54.7519 166.655 54.9614 166.426 55.1549 166.184C59.2244 161.096 63.7663 156.403 68.7199 152.17C71.2954 149.975 73.9999 147.936 76.819 146.064C82.8447 142.07 89.5396 139.192 96.584 137.568C100.81 136.582 105.1 135.893 109.423 135.505C109.991 135.452 110.56 135.422 111.071 135.386C111.374 135.096 111.282 134.787 111.27 134.518C111.24 132.89 111.196 131.262 111.164 129.635C111.055 124.084 110.946 118.531 110.835 112.977C110.835 112.668 110.901 112.339 110.664 111.992C110.083 111.902 109.467 111.811 108.832 111.703C105.585 111.178 102.419 110.24 99.4107 108.91C95.5394 107.181 92.2244 104.411 89.8354 100.909C87.8186 97.9981 86.3664 94.8163 85.2892 91.457C84.2348 88.1409 83.521 84.7261 83.1587 81.2653C83.0928 80.6668 83.013 80.0684 82.9392 79.4699C82.5642 79.2984 82.2071 79.3642 81.866 79.3642C80.4589 79.3714 79.0586 79.1698 77.7107 78.7657C76.2671 78.343 74.9356 77.6044 73.8128 76.6033C73.3161 76.1547 72.8662 75.6567 72.4702 75.1171C71.3332 73.5432 71.0519 71.8017 71.5925 69.9305C71.8465 69.0378 72.2513 68.1952 72.7894 67.439C74.5628 64.9394 76.9567 63.4492 80.0088 63.0503C80.958 62.9227 81.9162 62.8746 82.8734 62.9066C83.0928 62.9066 83.3123 62.9066 83.5776 62.9066C83.8868 61.9391 83.9506 60.9517 84.1521 59.9962C84.3635 58.9987 84.5511 57.9913 84.7665 57.0039C84.978 56.0384 85.2134 55.0768 85.4527 54.1173C85.7001 53.1279 85.9581 52.1411 86.2267 51.157C86.4861 50.2008 86.7574 49.2499 87.0406 48.3043C87.3259 47.3588 87.6291 46.4172 87.9383 45.4776C88.2475 44.538 88.5827 43.5406 88.9198 42.5771C89.2469 41.6462 89.5841 40.7152 89.9312 39.7843C90.2929 38.8307 90.666 37.8805 91.0503 36.9336C91.4193 36.02 91.8044 35.1103 92.1674 34.2406C92.0796 33.8017 91.7585 33.6122 91.5171 33.3688C90.2506 32.1067 89.0872 30.7452 88.0381 29.2973C86.8596 27.7048 85.9101 25.9549 85.2173 24.0987C84.6788 22.6608 84.4195 21.1334 84.4533 19.5984C84.5073 17.9293 84.958 16.297 85.7679 14.8366C87.7867 11.1362 90.8488 8.85208 95.026 8.11198C96.3786 7.87552 97.7485 7.75208 99.1215 7.74294C99.4067 7.74294 99.692 7.74294 99.9733 7.74294C100.217 7.47962 100.428 7.24223 100.65 7.01481C101.382 6.25677 102.1 5.48476 102.854 4.75265C105.268 2.41269 108.182 1.06217 111.464 0.463712C113.98 0.034867 116.541 -0.0630464 119.082 0.172464C122.884 0.473687 126.585 1.28759 130.265 2.23913C131.285 2.50245 132.314 2.72189 133.347 2.91738C135.845 3.39216 138.302 3.15677 140.728 2.4446C142.447 1.95255 144.101 1.25743 145.655 0.373944C145.82 0.27199 145.991 0.179415 146.166 0.0966592C146.325 0.0199221 146.502 -0.0120811 146.678 0.00408586C146.853 0.0202528 147.021 0.0839792 147.164 0.188422C147.318 0.299679 147.466 0.418866 147.608 0.545501C149.892 2.49695 151.948 4.69841 153.741 7.10857C154.833 8.56543 155.739 10.1538 156.436 11.8364C157.184 13.6716 157.553 15.5608 157.315 17.5556C157.172 18.6643 156.869 19.7462 156.414 20.7673C155.682 22.4355 154.701 23.9826 153.503 25.3555C152.671 26.321 151.76 27.2187 150.88 28.1483C150.68 28.3478 150.469 28.5473 150.23 28.7707C150.301 28.9802 150.353 29.1916 150.441 29.3891C153.753 36.8592 156.335 44.6321 158.151 52.5992C158.827 55.5543 159.373 58.5339 159.789 61.5382C159.819 61.7516 159.885 61.9591 159.939 62.2005C160.23 62.2005 160.481 62.2005 160.737 62.2005C162.619 62.0952 164.507 62.2673 166.34 62.7112C167.081 62.9034 167.803 63.1611 168.499 63.4812C170.471 64.3908 171.726 65.9229 172.289 68.0235C172.766 69.759 172.707 71.5985 172.119 73.2998C171.567 74.9531 170.433 76.3491 168.927 77.2277C167.689 77.9531 166.342 78.4751 164.938 78.7737C163.658 79.0464 162.36 79.2211 161.054 79.2964C160.832 79.3123 160.615 79.3403 160.425 79.3582C160.162 79.6574 160.216 79.9926 160.178 80.3018C159.58 85.1413 158.458 89.8392 156.511 94.3236C155.418 96.8817 154.011 99.294 152.322 101.505C150.159 104.326 147.406 106.641 144.255 108.288C141.304 109.811 138.174 110.961 134.939 111.711C134.634 111.783 134.331 111.872 134.051 111.948C134.009 112.057 133.979 112.17 133.964 112.285C134.054 119.719 134.148 127.155 134.247 134.592C134.247 134.843 134.277 135.096 134.295 135.374C134.648 135.573 135.035 135.583 135.404 135.631C139.456 136.157 143.448 137.071 147.325 138.362C152.474 140.072 157.088 142.751 161.311 146.12C164.41 148.588 167.281 151.33 169.889 154.313C170.478 154.984 171.024 155.693 171.523 156.433C174.754 161.241 177.507 166.302 179.588 171.722C180.903 175.244 181.884 178.882 182.518 182.588C183.412 187.618 183.865 192.716 183.871 197.825C183.883 198.144 183.873 198.464 183.843 198.782C183.757 199.462 183.406 199.78 182.714 199.855C182.49 199.877 182.267 199.873 182.044 199.875L166.915 199.973C166.66 199.982 166.405 199.976 166.151 199.953C165.924 199.94 165.707 199.858 165.528 199.717C165.35 199.576 165.219 199.385 165.153 199.167C165.066 198.893 164.994 198.615 164.938 198.333C164.061 194.314 163.18 190.297 162.295 186.28C162.263 186.137 162.213 185.999 162.169 185.852C161.908 185.953 161.969 186.139 161.969 186.28C161.945 187.685 161.925 189.089 161.91 190.494C161.876 193.047 161.842 195.6 161.808 198.152C161.81 198.471 161.786 198.79 161.738 199.105C161.71 199.33 161.604 199.539 161.44 199.695C161.276 199.851 161.062 199.946 160.836 199.963C160.487 199.997 160.136 200.007 159.785 199.995C150.077 199.982 140.374 199.966 130.676 199.947C115.483 199.914 100.29 199.874 85.0977 199.827C84.779 199.837 84.46 199.83 84.1421 199.806C83.8811 199.798 83.6331 199.691 83.4498 199.505C83.2665 199.319 83.1622 199.069 83.1587 198.808C83.1347 198.458 83.1307 198.107 83.1467 197.757C83.2265 191.756 83.3069 185.756 83.3881 179.757C83.3881 179.42 83.4579 179.071 83.3103 178.686C82.9233 178.802 82.6759 179.057 82.3966 179.251C78.8059 181.738 75.2351 184.268 71.6065 186.707C68.4825 188.806 65.2788 190.787 62.1309 192.853C61.1344 193.49 60.0621 193.999 58.9391 194.37C56.5941 195.214 54.14 195.718 51.6519 195.866C47.6443 196.065 44.1672 194.868 41.3565 191.94C40.1073 190.609 39.1554 189.028 38.5637 187.302C37.9722 185.582 37.5277 183.815 37.2351 182.019C36.118 175.801 34.9131 169.603 33.3511 163.479C31.5079 156.248 29.6168 149.029 27.7416 141.805C26.3133 136.31 24.8796 130.817 23.4407 125.326C23.3569 125.026 23.2651 124.721 23.1694 124.378ZM93.8471 35.0984C93.6775 35.4794 93.506 35.8524 93.3464 36.2315C90.1805 43.7299 87.7669 51.5241 86.141 59.4994C85.4547 62.8449 84.9922 66.2323 84.7565 69.6393C84.4833 73.6238 84.5862 77.6252 85.0637 81.5905C85.4551 84.9196 86.1775 88.2014 87.2202 91.3872C88.2695 94.5191 89.6639 97.4815 91.5969 100.179C93.7285 103.192 96.619 105.587 99.9753 107.123C102.449 108.245 105.045 109.077 107.711 109.6C110.815 110.231 113.961 110.508 117.113 110.713C120.809 110.963 124.517 110.963 128.212 110.713C130.181 110.578 132.152 110.462 134.089 109.991C137.361 109.193 140.525 108.148 143.505 106.566C146.421 105.021 148.962 102.856 150.95 100.222C152.509 98.1569 153.81 95.9079 154.822 93.5257C157.152 88.1396 158.283 82.4602 158.634 76.6233C158.817 73.3712 158.773 70.1104 158.502 66.8644C158.247 63.6527 157.824 60.4565 157.234 57.2891C156.152 51.5185 154.646 45.8356 152.727 40.287C151.59 36.9656 150.333 33.69 148.905 30.4823C148.793 30.2329 148.751 29.9237 148.412 29.7721C148.227 29.8399 148.013 29.9098 147.814 29.9896C145.494 30.8897 143.13 31.6708 140.73 32.3295C137.041 33.3684 133.268 34.0859 129.455 34.474C126.501 34.7822 123.524 34.8082 120.564 34.5518C117.699 34.3206 114.877 33.7122 112.172 32.7425C109.962 31.911 107.819 30.9106 105.762 29.7502C105.523 29.6185 105.31 29.3931 104.964 29.4529C104.619 29.9816 104.274 30.5162 103.923 31.0488C102.943 32.5249 101.497 33.6304 99.8157 34.1887C98.7325 34.5742 97.6053 34.8222 96.4604 34.9268C95.6105 34.9926 94.7547 35.0365 93.8471 35.0984ZM1.99999 89.5579C1.85037 89.893 2.02592 90.1444 2.18152 90.3758C2.62637 91.0341 3.07721 91.6944 3.56196 92.3268C4.64716 93.7451 5.78423 95.1196 6.84948 96.5598C8.77654 99.1852 10.556 101.916 12.1797 104.739C12.4892 105.26 12.673 105.846 12.7163 106.45C12.8677 108.229 13.2156 109.986 13.7537 111.689C14.5891 114.455 16.1835 116.932 18.3558 118.838C19.9048 120.222 21.6147 121.413 23.4487 122.387C24.7693 123.087 24.7693 123.05 25.1682 124.582C28.1259 135.972 31.089 147.361 34.0573 158.749C35.4038 163.904 36.6606 169.079 37.664 174.309C38.2226 177.224 38.7652 180.14 39.3357 183.051C39.6668 184.744 40.0858 186.418 40.8637 187.972C42.3978 191.036 44.8315 192.995 48.1809 193.757C49.3999 194.024 50.6523 194.104 51.8953 193.995C53.8682 193.832 55.8155 193.441 57.6983 192.83C58.3101 192.635 58.8467 192.256 59.2344 191.744C59.6105 191.266 59.878 190.712 60.0183 190.121C60.3315 188.892 60.2817 187.649 60.134 186.41C59.9649 185.144 59.6982 183.893 59.3361 182.668C58.5102 179.705 57.3033 176.895 55.9349 174.15C53.9699 170.21 51.9791 166.284 49.9982 162.352C48.4322 159.246 46.9181 156.116 45.6295 152.885C41.4662 142.434 38.2345 131.691 35.5455 120.779C35.4508 120.428 35.4311 120.061 35.4874 119.702C35.5438 119.343 35.675 119 35.8726 118.695C36.9406 116.916 37.8703 115.058 38.6535 113.137C39.9022 110.115 40.5306 106.985 40.359 103.705C40.3112 102.814 40.3132 101.91 40.3112 101.024C40.3177 100.035 40.4287 99.0483 40.6423 98.0819C40.9635 96.5778 41.53 95.1555 42.0886 93.7291C42.3659 93.017 42.6252 92.2948 42.8706 91.5727C42.907 91.4044 42.9204 91.2319 42.9105 91.06C42.7803 90.9781 42.635 90.9231 42.4833 90.8981C42.3315 90.8731 42.1763 90.8786 42.0267 90.9144C41.3745 90.9874 40.7433 91.189 40.1694 91.5074C39.5955 91.8259 39.0905 92.2549 38.6834 92.7696C38.2332 93.3503 37.8671 93.9917 37.5962 94.6747C37.0922 95.9186 36.7743 97.23 36.6526 98.5667C36.5688 99.4225 36.5349 100.286 36.513 101.146C36.5198 101.369 36.474 101.591 36.3794 101.793C36.2848 101.996 36.144 102.173 35.9684 102.311C35.6193 102.588 35.2762 102.878 34.947 103.179C33.1856 104.799 31.7552 106.648 30.9214 108.924C30.5122 110.065 30.1973 111.238 29.9798 112.431C29.9499 112.586 29.9419 112.75 29.898 112.902C29.7185 113.552 29.2138 113.899 28.6233 113.787C28.0747 113.684 27.7396 113.215 27.7795 112.577C27.8024 112.322 27.8444 112.07 27.9052 111.822C28.759 108.032 30.5583 104.803 33.5187 102.247L34.3166 101.557C34.5161 101.391 34.6957 101.224 34.8852 101.056C34.9071 100.657 34.953 100.29 34.7735 99.9152C34.4303 99.195 34.1132 98.4629 33.8299 97.7208C32.4119 94.0915 31.4815 90.29 31.063 86.416C30.8223 84.0022 30.5816 81.5891 30.3409 79.1767C30.2469 77.9678 30.0466 76.7696 29.7424 75.5959C29.5636 75.0188 29.3354 74.4581 29.0602 73.9202C28.9774 73.7455 28.8561 73.5918 28.7055 73.4705C28.5549 73.3493 28.3788 73.2637 28.1904 73.22C27.7476 73.1143 27.4184 73.2719 27.3027 73.7148C27.1931 74.1145 27.1295 74.5254 27.1132 74.9396C27.1002 75.6092 27.1222 76.2791 27.179 76.9464C27.3925 79.5218 27.6937 82.0892 27.7556 84.6765C27.8339 86.7184 27.7371 88.7633 27.4663 90.7887C27.4129 91.1993 27.2979 91.5994 27.1252 91.9757C26.7103 92.8175 25.7707 92.9252 25.1662 92.2031C24.9225 91.9063 24.7333 91.5686 24.6077 91.2057C24.3184 90.3957 24.0591 89.5719 23.8277 88.744C23.0457 85.9512 22.5191 83.0906 21.9206 80.2499C21.5994 78.7219 21.2882 77.1878 20.7596 75.7136C20.5387 75.1154 20.2719 74.5352 19.9617 73.9781C19.8023 73.7024 19.5819 73.467 19.3173 73.2899C19.2281 73.2204 19.1229 73.1743 19.0113 73.1559C18.8997 73.1374 18.7852 73.1472 18.6784 73.1843C18.5715 73.2214 18.4756 73.2846 18.3994 73.3682C18.3232 73.4518 18.2691 73.5531 18.2421 73.6629C18.1341 74.0279 18.0744 74.4055 18.0646 74.786C18.0087 76.2343 18.286 77.6466 18.5613 79.055C19.2295 82.4682 19.9218 85.8774 20.2788 89.3405C20.4085 90.6072 20.4783 91.8839 20.5342 93.1566C20.5472 93.5707 20.4794 93.9833 20.3347 94.3715C20.2793 94.5311 20.1862 94.675 20.0632 94.7908C19.9402 94.9066 19.791 94.9909 19.6283 95.0366C19.4656 95.0822 19.2943 95.0879 19.129 95.053C18.9637 95.0181 18.8093 94.9438 18.679 94.8363C18.4545 94.6584 18.2617 94.4439 18.1084 94.2019C17.8773 93.8579 17.677 93.494 17.51 93.1147C17.0472 92.0315 16.5724 90.9483 16.1754 89.8392C15.4473 87.7964 14.795 85.7258 14.0669 83.6831C13.6679 82.544 13.2031 81.4189 12.7004 80.3177C12.3852 79.6555 12.0107 79.0232 11.5813 78.4286C11.3338 78.0985 11.0266 77.8177 10.6756 77.6007C10.5631 77.5232 10.434 77.4729 10.2987 77.4538C10.1634 77.4347 10.0254 77.4473 9.89582 77.4906C9.7662 77.534 9.64843 77.6068 9.5518 77.7035C9.45518 77.8002 9.38234 77.918 9.33906 78.0476C9.24399 78.2845 9.19915 78.5385 9.2074 78.7937C9.21475 79.3352 9.27286 79.8748 9.38095 80.4055C9.59797 81.3052 9.86435 82.1923 10.1789 83.0627C10.8332 84.858 11.5394 86.6394 12.2256 88.4248C13.0834 90.6591 13.9412 92.8933 14.5037 95.2253C14.6464 95.8455 14.7523 96.4737 14.8209 97.1064C14.853 97.392 14.8307 97.681 14.7551 97.9582C14.5257 98.808 13.6898 99.1432 12.9478 98.6804C12.6508 98.4903 12.3822 98.2593 12.1498 97.9941C11.6371 97.4256 11.1524 96.8292 10.6557 96.2486C9.78391 95.2293 8.92413 94.1999 8.03243 93.2005C7.25196 92.314 6.38895 91.5038 5.45508 90.7808C4.86042 90.2954 4.19247 89.9076 3.47618 89.6317C2.98146 89.4582 2.49671 89.3704 1.99999 89.5519V89.5579ZM132.049 112.323C131.745 112.323 131.558 112.323 131.37 112.323C130.513 112.385 129.655 112.457 128.795 112.523C124.721 112.816 120.631 112.816 116.557 112.523C115.505 112.449 114.456 112.361 113.407 112.289C113.193 112.273 112.962 112.203 112.716 112.465C112.716 112.836 112.716 113.277 112.716 113.72C112.82 118.822 112.925 123.925 113.032 129.028C113.075 131.222 113.113 133.431 113.133 135.631C113.125 136.078 113.275 136.514 113.556 136.862C114.262 137.768 115.043 138.613 115.89 139.387C117.768 141.107 120.228 142.053 122.774 142.035C126.136 142.062 128.937 140.864 131.055 138.202C131.332 137.853 131.58 137.48 131.865 137.135C132.249 136.664 132.44 136.064 132.398 135.458C132.334 132.81 132.304 130.163 132.268 127.514C132.204 122.794 132.143 118.073 132.084 113.351C132.08 113.045 132.049 112.732 132.049 112.323ZM160.459 77.4013C160.882 77.4013 161.163 77.4192 161.441 77.4013C162.652 77.3185 163.854 77.1282 165.031 76.8327C166.148 76.5595 167.213 76.1075 168.185 75.4942C169.296 74.7789 170.106 73.6819 170.463 72.4101C170.76 71.3957 170.828 70.3281 170.663 69.2842C170.36 67.2315 169.281 65.7553 167.324 64.9753C166.997 64.8398 166.665 64.7213 166.326 64.6202C164.435 64.0836 162.502 63.9679 160.541 64.0696C160.424 64.0905 160.311 64.1274 160.204 64.1794C160.201 65.4112 160.307 66.6408 160.521 67.8539C160.784 67.8539 161.068 67.8659 161.347 67.8858C162.344 67.9213 163.3 68.29 164.062 68.9331C165.742 70.3913 165.458 72.7552 163.483 73.7666C162.822 74.0866 162.11 74.2891 161.379 74.3651C161.134 74.397 160.89 74.4429 160.615 74.4868C160.501 75.4383 160.543 76.356 160.459 77.4013ZM83.3561 64.8915C82.0517 64.6961 80.7224 64.7414 79.4343 65.0252C78.3075 65.2707 77.244 65.7477 76.3113 66.4259C75.3786 67.1041 74.5971 67.9688 74.0162 68.965C73.6294 69.5927 73.3692 70.2901 73.2502 71.0177C73.0328 72.3762 73.4796 73.5332 74.3653 74.5426C75.3069 75.5941 76.4998 76.3896 77.8324 76.8547C79.3245 77.4053 80.8765 77.5309 82.4505 77.4791C82.5625 77.4563 82.6698 77.4145 82.7677 77.3554C82.8594 75.7775 82.7996 74.5825 82.6081 74.024C82.0395 73.9522 81.461 73.9222 80.9065 73.7986C80.2135 73.6463 79.5972 73.2528 79.1675 72.6883C78.7378 72.1238 78.5227 71.4249 78.5605 70.7165C78.5803 70.3001 78.6854 69.8923 78.8693 69.5183C79.0532 69.1442 79.3121 68.812 79.6298 68.5421C79.9607 68.2329 80.3957 68.0592 80.8486 68.0554C81.2612 68.068 81.6724 68.1087 82.0794 68.1771C82.3547 68.217 82.626 68.3047 82.9612 68.3885C83.0948 67.2036 83.2225 66.0705 83.3561 64.8915Z" fill="black"/>
<path d="M94.4209 35.313C95.3341 35.2508 96.1951 35.2066 97.0541 35.1323C98.2061 35.027 99.3402 34.7776 100.43 34.3897C102.12 33.8268 103.572 32.7147 104.557 31.2306C104.91 30.6968 105.257 30.1589 105.604 29.625C105.943 29.5648 106.158 29.7916 106.407 29.924C108.476 31.0915 110.632 32.098 112.856 32.9346C115.578 33.9103 118.417 34.5224 121.299 34.755C124.277 35.013 127.272 34.9868 130.245 34.6767C134.079 34.2852 137.871 33.5626 141.581 32.5171C143.996 31.8571 146.376 31.074 148.712 30.1709C148.912 30.0906 149.129 30.0204 149.314 29.9521C149.655 30.1047 149.697 30.4158 149.809 30.6666C151.249 33.894 152.511 37.1896 153.655 40.5313C155.586 46.1139 157.101 51.8315 158.189 57.6374C158.783 60.8241 159.209 64.0398 159.465 67.2713C159.737 70.5371 159.782 73.8178 159.598 77.0898C159.245 82.9624 158.107 88.6684 155.762 94.0955C154.743 96.4932 153.433 98.7566 151.863 100.835C149.863 103.485 147.306 105.663 144.372 107.218C141.374 108.809 138.191 109.867 134.899 110.664C132.95 111.137 130.967 111.254 128.986 111.39C125.268 111.641 121.537 111.641 117.819 111.39C114.648 111.19 111.483 110.905 108.36 110.27C105.682 109.743 103.074 108.908 100.589 107.78C97.2118 106.235 94.3036 103.824 92.159 100.793C90.2141 98.0795 88.8112 95.099 87.7555 91.948C86.7056 88.7421 85.9782 85.4396 85.5838 82.0893C85.1038 78.1018 85.0003 74.078 85.2748 70.0711C85.5119 66.6433 85.9772 63.2351 86.6677 59.8693C88.3037 51.843 90.7328 43.9991 93.9191 36.453C94.0777 36.0716 94.2503 35.6963 94.4209 35.313ZM105.008 57.6595C104.002 57.6756 103.043 58.0849 102.336 58.7996C101.628 59.5143 101.228 60.4777 101.222 61.4834C101.216 62.4892 101.604 63.4573 102.303 64.1804C103.002 64.9036 103.957 65.3243 104.962 65.3525C105.469 65.357 105.972 65.2614 106.443 65.0712C106.913 64.881 107.341 64.5999 107.702 64.244C108.064 63.8881 108.352 63.4644 108.549 62.9972C108.747 62.5299 108.85 62.0283 108.854 61.5211C108.86 61.0135 108.765 60.5098 108.574 60.0394C108.384 59.5691 108.101 59.1416 107.743 58.7819C107.384 58.4222 106.958 58.1377 106.489 57.945C106.019 57.7522 105.516 57.6552 105.008 57.6595ZM135.282 61.4729C135.286 62.4523 135.678 63.3904 136.373 64.0807C137.067 64.771 138.008 65.157 138.987 65.1538C139.967 65.1506 140.905 64.7585 141.595 64.0637C142.286 63.3688 142.672 62.4282 142.668 61.4488C142.667 60.9638 142.57 60.4839 142.383 60.0365C142.196 59.589 141.922 59.1828 141.578 58.841C141.234 58.4992 140.826 58.2285 140.378 58.0444C139.929 57.8602 139.448 57.7663 138.963 57.7679C138.478 57.7694 137.999 57.8665 137.551 58.0536C137.104 58.2406 136.697 58.514 136.356 58.858C136.014 59.2021 135.743 59.6101 135.559 60.0587C135.375 60.5074 135.281 60.9879 135.282 61.4729ZM138.727 40.1419C138.598 40.1419 138.277 40.1419 137.958 40.1841C135.75 40.433 133.731 41.2217 131.832 42.3437C131.665 42.4391 131.511 42.5566 131.375 42.6929C131.227 42.8429 131.135 43.0384 131.113 43.2476C131.09 43.4568 131.14 43.6673 131.252 43.8449C131.355 44.0104 131.507 44.1387 131.688 44.211C131.869 44.2832 132.068 44.2956 132.256 44.2464C132.501 44.1801 132.731 44.0457 132.97 43.9654C133.934 43.6121 134.883 43.2188 135.865 42.9217C138.157 42.2022 140.636 42.3632 142.817 43.3733C143.634 43.7426 144.423 44.1761 145.215 44.5936C145.442 44.712 145.651 44.8706 145.888 44.9669C146.095 45.0589 146.328 45.0749 146.546 45.0121C146.764 44.9494 146.953 44.8119 147.08 44.6237C147.21 44.4374 147.271 44.2121 147.254 43.9857C147.237 43.7593 147.142 43.5459 146.986 43.3813C146.831 43.2182 146.659 43.0722 146.474 42.9458C145.227 42.0374 143.858 41.3097 142.407 40.7842C141.23 40.3484 139.982 40.1308 138.727 40.1419ZM121.416 98.7779C122.369 98.7338 123.043 98.7197 123.714 98.6635C124.162 98.6228 124.607 98.5557 125.047 98.4628C127.644 97.929 129.663 96.4558 131.399 94.527C131.486 94.4328 131.561 94.3275 131.622 94.2139C131.698 94.0715 131.728 93.9091 131.708 93.7488C131.689 93.5886 131.62 93.4384 131.511 93.3188C131.385 93.1926 131.219 93.1146 131.042 93.0984C130.864 93.0823 130.686 93.129 130.54 93.2305C130.358 93.362 130.186 93.5062 130.024 93.662C129.254 94.3432 128.423 94.952 127.541 95.4804C126.553 96.0837 125.459 96.4957 124.318 96.6946C122.667 96.9618 120.985 96.9734 119.33 96.7288C118.238 96.5812 117.221 96.0891 116.428 95.3238C115.943 94.8602 115.501 94.3484 115.041 93.8567C114.903 93.681 114.75 93.5166 114.586 93.3649C114.486 93.2823 114.363 93.2321 114.233 93.221C114.104 93.2099 113.974 93.2384 113.861 93.3027C113.731 93.368 113.626 93.4726 113.559 93.6017C113.492 93.7308 113.468 93.8776 113.49 94.0212C113.529 94.2098 113.597 94.3912 113.691 94.5591C113.891 94.9224 114.114 95.2797 114.351 95.6209C115.487 97.2606 117.022 98.2862 119.015 98.5532C119.894 98.6656 120.79 98.7197 121.416 98.7779ZM105.106 40.0737C104.336 40.0596 103.567 40.15 102.82 40.3426C100.898 40.8665 99.2338 41.868 97.7205 43.1405C97.5973 43.2428 97.4874 43.3601 97.3933 43.4897C97.2753 43.6438 97.2114 43.8325 97.2114 44.0266C97.2114 44.2207 97.2753 44.4094 97.3933 44.5635C97.5062 44.7215 97.6688 44.837 97.8551 44.8916C98.0414 44.9462 98.2407 44.9366 98.4209 44.8645C98.6509 44.753 98.8747 44.629 99.0913 44.4932C99.8239 44.0918 100.542 43.6723 101.299 43.3151C103.346 42.3367 105.68 42.139 107.862 42.7591C109.103 43.0856 110.307 43.5368 111.457 44.1059C111.709 44.2398 111.98 44.3371 112.26 44.3949C112.419 44.4211 112.582 44.3964 112.726 44.3244C112.87 44.2523 112.988 44.1365 113.062 43.9935C113.156 43.8422 113.198 43.6651 113.184 43.4879C113.17 43.3108 113.1 43.1427 112.984 43.008C112.806 42.8217 112.603 42.6603 112.382 42.5283C111.166 41.7498 109.858 41.1248 108.488 40.6678C107.399 40.2946 106.258 40.0941 105.106 40.0737ZM124.047 79.2493V79.2313C123.664 79.2313 123.276 79.2574 122.895 79.2313C122.545 79.1975 122.199 79.1303 121.861 79.0306C121.796 79.0216 121.733 78.9991 121.676 78.9646C121.62 78.93 121.571 78.8841 121.534 78.8298C121.496 78.7754 121.47 78.7138 121.457 78.6489C121.444 78.584 121.445 78.5171 121.46 78.4525C121.501 78.0407 121.596 77.636 121.741 77.2483C122.038 76.5418 122.405 75.8655 122.744 75.171C122.869 74.9415 122.962 74.6965 123.021 74.4425C123.039 74.2913 123.012 74.1383 122.944 74.0021C122.876 73.8658 122.771 73.7522 122.64 73.6749C122.508 73.5975 122.358 73.5599 122.206 73.5665C122.054 73.573 121.907 73.6236 121.783 73.7119C121.63 73.828 121.498 73.9699 121.394 74.1314C120.762 75.0207 120.258 75.9943 119.896 77.0235C119.762 77.4148 119.664 77.818 119.605 78.2278C119.467 79.3898 120.037 80.3091 121.123 80.7305C121.3 80.8049 121.485 80.8607 121.675 80.8971C122.911 81.1059 124.177 81.0657 125.398 80.7787C125.608 80.7498 125.798 80.639 125.926 80.4706C126.055 80.3021 126.112 80.0897 126.084 79.8796C126.04 79.45 125.715 79.1671 125.209 79.1691C124.816 79.1771 124.426 79.2233 124.047 79.2493Z" fill="white"/>
<path d="M2.01219 90.0995C2.51194 89.9128 3.00568 90.0052 3.49741 90.1798C4.21808 90.4573 4.89011 90.8475 5.4884 91.3358C6.42808 92.064 7.29636 92.8798 8.08151 93.7724C8.97866 94.7759 9.8437 95.8136 10.7208 96.8392C11.2225 97.4232 11.7083 98.0233 12.2241 98.5954C12.4579 98.8621 12.7282 99.0945 13.0269 99.2858C13.7735 99.7514 14.6145 99.4142 14.8453 98.5592C14.9213 98.2803 14.9438 97.9895 14.9115 97.7022C14.8425 97.0656 14.7359 96.4336 14.5924 95.8096C14.0264 93.4633 13.1634 91.2154 12.3003 88.9675C11.6099 87.1712 10.8954 85.3809 10.2411 83.5726C9.92464 82.6969 9.65663 81.8044 9.43828 80.8992C9.32953 80.3653 9.27107 79.8223 9.26367 79.2775C9.25537 79.0208 9.30048 78.7652 9.39613 78.5268C9.43968 78.3964 9.51296 78.2779 9.61017 78.1806C9.70739 78.0834 9.82588 78.0101 9.9563 77.9665C10.0867 77.9229 10.2255 77.9102 10.3616 77.9294C10.4978 77.9486 10.6276 77.9993 10.7409 78.0773C11.0925 78.2985 11.3996 78.5838 11.646 78.9182C12.078 79.5164 12.4549 80.1526 12.772 80.8189C13.2778 81.9268 13.7394 83.0588 14.1468 84.2048C14.8794 86.26 15.5357 88.3433 16.2683 90.3986C16.6697 91.5145 17.1454 92.6063 17.611 93.6941C17.7791 94.0758 17.9806 94.4418 18.2131 94.788C18.3673 95.0314 18.5613 95.2472 18.7871 95.4262C18.9183 95.5344 19.0736 95.6092 19.24 95.6443C19.4063 95.6793 19.5786 95.6737 19.7423 95.6277C19.9059 95.5818 20.056 95.4969 20.1798 95.3804C20.3035 95.2639 20.3973 95.1192 20.453 94.9586C20.5986 94.568 20.6667 94.1529 20.6537 93.7363C20.5995 92.4558 20.5272 91.1713 20.3968 89.8968C20.0375 86.4125 19.3411 82.9825 18.6687 79.5484C18.3917 78.1315 18.1128 76.7105 18.169 75.2533C18.1789 74.8705 18.2389 74.4906 18.3476 74.1234C18.3748 74.0129 18.4292 73.9109 18.5059 73.8268C18.5825 73.7427 18.679 73.6791 18.7865 73.6418C18.894 73.6045 19.0092 73.5947 19.1214 73.6133C19.2337 73.6318 19.3396 73.6781 19.4294 73.7481C19.6956 73.9263 19.9173 74.1632 20.0777 74.4405C20.3898 75.001 20.6582 75.5848 20.8805 76.1866C21.4123 77.6698 21.7254 79.2133 22.0486 80.7507C22.6507 83.6087 23.1806 86.4828 23.9673 89.2967C24.2001 90.1296 24.4611 90.9585 24.7521 91.7734C24.8785 92.1385 25.0688 92.4783 25.3141 92.7769C25.9162 93.5035 26.8675 93.3951 27.285 92.5481C27.4587 92.1695 27.5744 91.767 27.6282 91.3539C27.9007 89.3161 27.998 87.2587 27.9192 85.2043C27.857 82.5951 27.5539 80.0181 27.3392 77.427C27.282 76.7556 27.2599 76.0816 27.2729 75.4079C27.2893 74.9912 27.3533 74.5777 27.4636 74.1756C27.58 73.73 27.9112 73.5734 28.3567 73.6778C28.5463 73.7217 28.7234 73.8078 28.875 73.9298C29.0265 74.0518 29.1485 74.2065 29.2318 74.3823C29.5087 74.9235 29.7383 75.4875 29.9182 76.0682C30.2243 77.2491 30.4258 78.4546 30.5203 79.6709C30.7625 82.0994 31.0047 84.5273 31.2469 86.9545C31.6679 90.8522 32.604 94.6768 34.0307 98.3284C34.3157 99.077 34.6328 99.8136 34.98 100.536C35.1607 100.914 35.1145 101.279 35.0924 101.684C34.9017 101.853 34.7131 102.021 34.5204 102.188L33.7176 102.882C30.7391 105.451 28.9288 108.703 28.0697 112.516C28.0086 112.766 27.9663 113.019 27.9433 113.275C27.9032 113.917 28.2403 114.389 28.7923 114.493C29.3944 114.606 29.8941 114.256 30.0748 113.602C30.1189 113.45 30.127 113.285 30.1571 113.128C30.3771 111.923 30.696 110.739 31.1104 109.586C31.9454 107.296 33.3884 105.435 35.1607 103.806C35.4918 103.503 35.837 103.204 36.1883 102.933C36.365 102.794 36.5066 102.615 36.6018 102.412C36.697 102.208 36.743 101.985 36.7362 101.76C36.7583 100.895 36.7924 100.026 36.8767 99.1654C36.9991 97.8206 37.319 96.5011 37.826 95.2496C38.0986 94.5624 38.4669 93.9171 38.9199 93.3329C39.3294 92.8149 39.8376 92.3833 40.415 92.0629C40.9923 91.7426 41.6275 91.5398 42.2837 91.4663C42.4342 91.4303 42.5903 91.4247 42.743 91.4499C42.8957 91.475 43.0418 91.5304 43.1728 91.6128C43.1828 91.7858 43.1693 91.9593 43.1327 92.1286C42.8858 92.8552 42.6249 93.5817 42.3459 94.2983C41.7839 95.7333 41.2139 97.1643 40.8908 98.6776C40.6759 99.65 40.5642 100.642 40.5576 101.638C40.5576 102.537 40.5576 103.444 40.6058 104.336C40.7784 107.635 40.1462 110.784 38.8898 113.825C38.102 115.759 37.1666 117.63 36.0919 119.421C35.8923 119.729 35.76 120.076 35.7036 120.438C35.6473 120.801 35.6681 121.172 35.7648 121.526C38.4703 132.504 41.7217 143.312 45.9104 153.827C47.207 157.079 48.7203 160.228 50.3059 163.353C52.2989 167.309 54.3019 171.259 56.2788 175.223C57.6557 177.984 58.87 180.812 59.7009 183.793C60.0651 185.025 60.3335 186.284 60.5037 187.558C60.6522 188.804 60.7044 190.055 60.3873 191.291C60.2461 191.886 59.9769 192.444 59.5985 192.925C59.2085 193.44 58.6686 193.821 58.0531 194.017C56.1587 194.632 54.1995 195.025 52.2146 195.189C50.9639 195.298 49.7039 195.218 48.4774 194.95C45.1076 194.175 42.657 192.204 41.1156 189.129C40.3328 187.566 39.9113 185.882 39.5782 184.178C39.0042 181.25 38.4582 178.315 37.8963 175.383C36.8927 170.119 35.6223 164.912 34.2675 159.728C31.277 148.272 28.2959 136.813 25.3241 125.351C24.9227 123.808 24.9227 123.846 23.594 123.144C21.7489 122.163 20.0285 120.965 18.47 119.573C16.2825 117.653 14.6775 115.158 13.8377 112.372C13.297 110.655 12.9483 108.884 12.7981 107.091C12.7529 106.483 12.5667 105.894 12.2542 105.371C10.6206 102.531 8.83018 99.7836 6.89133 97.1423C5.81957 95.7012 4.68357 94.3103 3.58371 92.8833C3.096 92.247 2.6424 91.5827 2.19483 90.9204C2.03828 90.6896 1.86166 90.4367 2.01219 90.0995Z" fill="white"/>
<path d="M132.856 113.01C132.874 113.421 132.898 113.736 132.902 114.052C132.965 118.802 133.027 123.552 133.087 128.302C133.123 130.967 133.153 133.63 133.217 136.294C133.259 136.904 133.068 137.508 132.681 137.982C132.394 138.329 132.145 138.704 131.866 139.055C129.735 141.733 126.917 142.939 123.535 142.911C120.968 142.93 118.49 141.975 116.599 140.24C115.746 139.459 114.96 138.609 114.251 137.697C113.968 137.347 113.817 136.908 113.825 136.458C113.805 134.251 113.767 132.031 113.723 129.815C113.621 124.681 113.515 119.547 113.406 114.413C113.406 113.967 113.406 113.524 113.406 113.15C113.652 112.888 113.885 112.95 114.1 112.974C115.156 113.046 116.211 113.134 117.269 113.209C121.368 113.504 125.483 113.504 129.582 113.209C130.447 113.146 131.311 113.074 132.174 113.008C132.352 112.998 132.541 113.01 132.856 113.01Z" fill="white"/>
<path d="M161.44 77.8745C161.525 76.8269 161.482 75.9036 161.611 74.9402C161.888 74.8961 162.133 74.8499 162.38 74.8178C163.115 74.7413 163.832 74.5376 164.497 74.2157C166.482 73.1981 166.769 70.8198 165.079 69.3526C164.312 68.7056 163.35 68.3346 162.348 68.2989C162.067 68.2788 161.782 68.2768 161.517 68.2668C161.301 67.0463 161.195 65.8091 161.197 64.5698C161.305 64.5175 161.419 64.4803 161.537 64.4594C163.502 64.357 165.446 64.4735 167.357 65.0134C167.698 65.1151 168.033 65.2343 168.361 65.3706C170.33 66.1554 171.415 67.6406 171.72 69.7058C171.887 70.7561 171.818 71.8303 171.52 72.8509C171.16 74.1304 170.345 75.2341 169.228 75.9538C168.249 76.5708 167.178 77.0256 166.055 77.3005C164.87 77.5978 163.661 77.7893 162.442 77.8725C162.159 77.8886 161.866 77.8745 161.44 77.8745Z" fill="white"/>
<path d="M83.8658 65.2883C83.7314 66.4745 83.6029 67.6145 83.4644 68.8047C83.1272 68.7204 82.8623 68.6321 82.5773 68.5919C82.1678 68.5231 81.754 68.4822 81.3389 68.4695C80.8833 68.4733 80.4456 68.6481 80.1126 68.9592C79.793 69.2307 79.5326 69.565 79.3475 69.9413C79.1625 70.3177 79.0567 70.728 79.0369 71.1469C78.9988 71.8597 79.2153 72.5628 79.6476 73.1308C80.0799 73.6987 80.7 74.0946 81.3971 74.2478C81.9551 74.3722 82.5372 74.4023 83.1092 74.4746C83.3099 75.0366 83.3621 76.2388 83.2697 77.8264C83.1713 77.8858 83.0633 77.9279 82.9506 77.9508C81.367 78.003 79.8056 77.8765 78.3043 77.3226C76.9635 76.8547 75.7633 76.0543 74.816 74.9964C73.9249 73.9809 73.4753 72.8168 73.6941 71.45C73.8141 70.7186 74.0759 70.0177 74.4648 69.3867C75.0505 68.3854 75.8378 67.5168 76.7769 66.8358C77.7159 66.1548 78.7863 65.6764 79.92 65.4308C81.2155 65.1427 82.5529 65.0944 83.8658 65.2883Z" fill="white"/>
<path d="M105.008 57.6595C105.516 57.6552 106.019 57.7522 106.489 57.945C106.958 58.1377 107.384 58.4222 107.743 58.7819C108.101 59.1416 108.384 59.5691 108.574 60.0395C108.765 60.5098 108.86 61.0135 108.854 61.5211C108.854 62.5388 108.449 63.5149 107.73 64.2346C107.01 64.9542 106.034 65.3586 105.016 65.3586C103.998 65.3586 103.022 64.9542 102.303 64.2346C101.583 63.5149 101.179 62.5388 101.179 61.5211C101.172 61.0149 101.267 60.5125 101.457 60.0432C101.646 59.5739 101.928 59.1471 102.284 58.7877C102.641 58.4282 103.065 58.1434 103.533 57.9497C104 57.756 104.502 57.6573 105.008 57.6595Z" fill="black"/>
<path d="M135.282 61.4629C135.279 60.4834 135.665 59.5429 136.356 58.848C137.046 58.1532 137.984 57.7611 138.963 57.7579C139.943 57.7547 140.883 58.1407 141.578 58.831C142.273 59.5213 142.665 60.4594 142.668 61.4388C142.67 61.9238 142.576 62.4043 142.392 62.853C142.208 63.3016 141.937 63.7096 141.595 64.0537C141.253 64.3977 140.847 64.671 140.4 64.8581C139.952 65.0451 139.472 65.1422 138.987 65.1438C138.502 65.1454 138.022 65.0514 137.573 64.8673C137.125 64.6832 136.717 64.4125 136.373 64.0707C136.029 63.7289 135.755 63.3227 135.568 62.8752C135.381 62.4278 135.284 61.9479 135.282 61.4629Z" fill="black"/>
<path d="M138.727 40.142C139.981 40.132 141.227 40.3503 142.403 40.7862C143.854 41.313 145.223 42.042 146.47 42.9518C146.655 43.0783 146.827 43.2243 146.982 43.3874C147.138 43.5519 147.233 43.7654 147.25 43.9917C147.267 44.2181 147.206 44.4435 147.076 44.6297C146.949 44.8179 146.76 44.9554 146.542 45.0182C146.324 45.0809 146.091 45.0649 145.884 44.9729C145.647 44.8766 145.438 44.718 145.211 44.5996C144.409 44.1882 143.63 43.7486 142.813 43.3793C140.634 42.3714 138.157 42.2112 135.867 42.9298C134.885 43.2268 133.936 43.6202 132.972 43.9734C132.734 44.0617 132.503 44.1882 132.258 44.2544C132.07 44.3037 131.871 44.2913 131.69 44.219C131.509 44.1468 131.357 44.0185 131.254 43.853C131.142 43.6754 131.092 43.4648 131.115 43.2556C131.137 43.0464 131.229 42.8509 131.377 42.701C131.512 42.5641 131.666 42.446 131.832 42.3497C133.731 41.2278 135.752 40.439 137.958 40.1901C138.275 40.154 138.598 40.154 138.727 40.142Z" fill="black"/>
<path d="M121.416 98.778C120.796 98.7198 119.9 98.6656 119.007 98.5472C117.014 98.2802 115.479 97.2546 114.343 95.6149C114.106 95.2737 113.889 94.9164 113.683 94.5531C113.589 94.3852 113.521 94.2038 113.482 94.0152C113.46 93.8716 113.484 93.7248 113.551 93.5957C113.618 93.4666 113.723 93.362 113.853 93.2967C113.966 93.2324 114.096 93.2039 114.225 93.215C114.355 93.2261 114.477 93.2763 114.578 93.3589C114.742 93.5106 114.895 93.675 115.033 93.8507C115.493 94.3424 115.934 94.8542 116.42 95.3178C117.213 96.0831 118.23 96.5752 119.322 96.7228C120.977 96.9674 122.659 96.9558 124.31 96.6886C125.451 96.4897 126.544 96.0777 127.533 95.4744C128.415 94.946 129.246 94.3372 130.016 93.656C130.178 93.5002 130.35 93.356 130.532 93.2245C130.678 93.123 130.856 93.0763 131.033 93.0924C131.211 93.1086 131.377 93.1866 131.503 93.3128C131.612 93.4324 131.68 93.5826 131.7 93.7428C131.72 93.9031 131.69 94.0655 131.614 94.2079C131.553 94.3215 131.478 94.4268 131.391 94.521C129.645 96.4398 127.638 97.921 125.04 98.4548C124.601 98.5477 124.156 98.6148 123.708 98.6555C123.037 98.7198 122.363 98.7338 121.416 98.778Z" fill="black"/>
<path d="M105.106 40.0737C106.262 40.0954 107.408 40.2986 108.5 40.6758C109.87 41.1328 111.178 41.7578 112.394 42.5363C112.615 42.6683 112.818 42.8297 112.996 43.016C113.112 43.1507 113.182 43.3188 113.196 43.496C113.21 43.6731 113.168 43.8502 113.074 44.0015C113 44.1445 112.882 44.2603 112.738 44.3324C112.594 44.4045 112.431 44.4291 112.272 44.4029C111.992 44.3452 111.721 44.2478 111.469 44.1139C110.313 43.538 109.102 43.0814 107.854 42.7511C105.672 42.1309 103.338 42.3286 101.291 43.307C100.54 43.6643 99.8219 44.0878 99.0833 44.4852C98.8667 44.621 98.6429 44.7449 98.4129 44.8565C98.2327 44.9286 98.0334 44.9381 97.8471 44.8835C97.6608 44.829 97.4982 44.7134 97.3853 44.5554C97.2673 44.4013 97.2034 44.2126 97.2034 44.0185C97.2034 43.8245 97.2673 43.6358 97.3853 43.4817C97.4794 43.3521 97.5893 43.2348 97.7125 43.1324C99.2258 41.86 100.89 40.8584 102.812 40.3346C103.562 40.144 104.333 40.0562 105.106 40.0737Z" fill="black"/>
<path d="M124.047 79.2494C124.432 79.2233 124.816 79.1771 125.199 79.1771C125.705 79.1771 126.03 79.4581 126.074 79.8876C126.102 80.0977 126.045 80.3102 125.916 80.4786C125.788 80.6471 125.598 80.7578 125.388 80.7868C124.167 81.0738 122.901 81.114 121.665 80.9052C121.475 80.8687 121.29 80.8129 121.113 80.7386C120.027 80.3171 119.457 79.3979 119.595 78.2358C119.654 77.8261 119.751 77.4229 119.886 77.0316C120.248 76.0023 120.752 75.0288 121.384 74.1394C121.488 73.978 121.62 73.836 121.773 73.7199C121.896 73.6291 122.043 73.5762 122.196 73.5678C122.349 73.5593 122.501 73.5957 122.634 73.6724C122.766 73.7491 122.874 73.8628 122.942 73.9996C123.011 74.1364 123.039 74.2903 123.021 74.4425C122.963 74.69 122.872 74.9288 122.752 75.153C122.423 75.8474 122.056 76.5238 121.749 77.2303C121.604 77.618 121.509 78.0227 121.468 78.4345C121.453 78.4991 121.452 78.5659 121.465 78.6309C121.478 78.6958 121.504 78.7574 121.542 78.8117C121.579 78.8661 121.628 78.912 121.684 78.9465C121.741 78.9811 121.804 79.0036 121.869 79.0125C122.207 79.1123 122.553 79.1795 122.903 79.2132C123.284 79.2474 123.672 79.2132 124.055 79.2132L124.047 79.2494Z" fill="black"/>
</svg>
