<svg width="24" height="27" viewBox="0 0 24 27" fill="none" xmlns="http://www.w3.org/2000/svg">
<path d="M12 0.0748596C8.2137 0.0748596 5.1333 3.15526 5.1333 6.94156C5.1333 10.7279 8.2137 13.8083 12 13.8083C15.7863 13.8083 18.8667 10.7279 18.8667 6.94156C18.8667 3.15526 15.7863 0.0748596 12 0.0748596ZM12 12.2823C9.0551 12.2823 6.65923 9.88645 6.65923 6.94156C6.65923 3.99666 9.0551 1.60079 12 1.60079C14.9449 1.60079 17.3408 3.99666 17.3408 6.94156C17.3408 9.88645 14.9449 12.2823 12 12.2823Z" fill="white"/>
<path d="M20.5435 18.2942C18.6636 16.3854 16.1714 15.3342 13.526 15.3342H10.4741C7.82875 15.3342 5.33649 16.3854 3.45654 18.2942C1.5858 20.1937 0.555542 22.701 0.555542 25.3545C0.555542 25.7758 0.897147 26.1174 1.31851 26.1174H22.6816C23.1029 26.1174 23.4445 25.7758 23.4445 25.3545C23.4445 22.701 22.4143 20.1937 20.5435 18.2942ZM2.11505 24.5915C2.49729 20.2637 6.10032 16.8601 10.4741 16.8601H13.526C17.8997 16.8601 21.5028 20.2637 21.885 24.5915H2.11505Z" fill="white"/>
</svg>
