<svg width="27" height="24" viewBox="0 0 27 24" fill="none" xmlns="http://www.w3.org/2000/svg">
<path d="M23.9958 0.963318H3.63235C2.09613 0.963318 0.846313 2.21314 0.846313 3.74936V17.1223C0.846313 18.6586 2.09613 19.9084 3.63235 19.9084H10.1929C10.273 19.9084 10.3491 19.9468 10.3967 20.0113L12.7903 23.2564C13.0302 23.5817 13.3995 23.7693 13.8036 23.7712H13.8097C14.2115 23.7712 14.5801 23.5872 14.8217 23.2658L17.2697 20.0094C17.3172 19.9461 17.393 19.9083 17.4721 19.9083H23.9958C25.532 19.9083 26.7818 18.6585 26.7818 17.1223V3.74931C26.7818 2.21308 25.532 0.963318 23.9958 0.963318ZM25.2621 17.1223C25.2621 17.242 25.2451 17.3576 25.214 17.4674L17.4077 10.6245L25.2621 4.10627V17.1223ZM23.9958 2.48298C24.2274 2.48298 24.4446 2.54579 24.6315 2.65485L14.6249 10.9591C14.1563 11.348 13.4761 11.348 13.0075 10.9591L2.99911 2.65338C3.18552 2.54523 3.40177 2.48298 3.63235 2.48298H23.9958ZM2.41414 17.4674C2.38299 17.3576 2.36597 17.2419 2.36597 17.1223V4.10273L10.2225 10.6226L2.41414 17.4674ZM16.055 19.0963L13.8114 22.0807L11.6197 19.1093C11.287 18.6581 10.7535 18.3887 10.1929 18.3887H3.66847L11.4067 11.6054L12.037 12.1284C12.5525 12.5563 13.1842 12.7701 13.8162 12.7701C14.448 12.7701 15.0799 12.5561 15.5954 12.1284L16.2234 11.6072L23.9595 18.3887H17.4721C16.9179 18.3887 16.3881 18.6532 16.055 19.0963Z" fill="white"/>
</svg>
